<svg version="1.1" xmlns="http://www.w3.org/2000/svg" xmlns:xlink="http://www.w3.org/1999/xlink" x="0px" y="0px" width="20px"
	 height="20px" viewBox="0 0 20 20" style="overflow:visible;enable-background:new 0 0 20 20;" xml:space="preserve">
<style type="text/css">
	.st0{fill:#D2D4D6;}
</style>
<defs>
</defs>
<g>
	<path class="st0" d="M6.11,13.89h7.78V6.11H6.11V13.89z M9,8.5c0-0.55,0.45-1,1-1s1,0.45,1,1v1.02l1.72,1.35
		c0.43,0.34,0.51,0.97,0.17,1.4c-0.34,0.43-0.97,0.51-1.4,0.17l-2.04-1.63l0,0C9.18,10.63,9,10.34,9,10V8.5z"/>
	<path class="st0" d="M10,0C4.48,0,0,4.48,0,10c0,5.52,4.48,10,10,10s10-4.48,10-10C20,4.48,15.52,0,10,0z M17,9.22h-1.56v1.56H17
		v1.56h-1.56v1.56c0,0.86-0.7,1.56-1.56,1.56h-1.56V17h-1.56v-1.56H9.22V17H7.67v-1.56H6.11c-0.86,0-1.56-0.7-1.56-1.56v-1.56H3
		v-1.56h1.56V9.22H3V7.67h1.56V6.11c0-0.86,0.7-1.56,1.56-1.56h1.56V3h1.56v1.56h1.56V3h1.56v1.56h1.56c0.86,0,1.56,0.7,1.56,1.56
		v1.56H17V9.22z"/>
</g>
</svg>